<svg width="20" height="20" viewBox="0 0 20 20" fill="none" xmlns="http://www.w3.org/2000/svg">
<path fill-rule="evenodd" clip-rule="evenodd" d="M18 13.4071C18 13.8457 17.729 14.2359 17.324 14.3787L11 16.6054V4.71501V4.53322L16.676 2.53454C17.325 2.3055 18 2.80055 18 3.50615V13.4071ZM9 4.71501V16.6054L2.676 14.3787C2.271 14.2359 2 13.8457 2 13.4071V3.50615C2 2.80055 2.675 2.3055 3.324 2.53454L9 4.53322V4.71501ZM17.337 0.117845L10.331 2.64444C10.117 2.72147 9.883 2.72147 9.669 2.64444L2.663 0.117845C1.362 -0.351526 0 0.639596 0 2.05592V14.1158C0 14.997 0.547 15.7807 1.36 16.0621L9.68 18.9461C9.888 19.018 10.112 19.018 10.32 18.9461L18.64 16.0621C19.453 15.7807 20 14.997 20 14.1158V2.05592C20 0.639596 18.638 -0.351526 17.337 0.117845Z" fill="white" fill-opacity="0.01"/>
<mask id="mask0" mask-type="alpha" maskUnits="userSpaceOnUse" x="0" y="0" width="20" height="19">
<path fill-rule="evenodd" clip-rule="evenodd" d="M18 13.4071C18 13.8457 17.729 14.2359 17.324 14.3787L11 16.6054V4.71501V4.53322L16.676 2.53454C17.325 2.3055 18 2.80055 18 3.50615V13.4071ZM9 4.71501V16.6054L2.676 14.3787C2.271 14.2359 2 13.8457 2 13.4071V3.50615C2 2.80055 2.675 2.3055 3.324 2.53454L9 4.53322V4.71501ZM17.337 0.117845L10.331 2.64444C10.117 2.72147 9.883 2.72147 9.669 2.64444L2.663 0.117845C1.362 -0.351526 0 0.639596 0 2.05592V14.1158C0 14.997 0.547 15.7807 1.36 16.0621L9.68 18.9461C9.888 19.018 10.112 19.018 10.32 18.9461L18.64 16.0621C19.453 15.7807 20 14.997 20 14.1158V2.05592C20 0.639596 18.638 -0.351526 17.337 0.117845Z" fill="white"/>
</mask>
<g mask="url(#mask0)">
<rect opacity="0.5" x="-1" y="-1" width="22" height="22" fill="#9EA0A5"/>
</g>
</svg>
