<svg width="20" height="20" viewBox="0 0 20 20" fill="none" xmlns="http://www.w3.org/2000/svg">
<path fill-rule="evenodd" clip-rule="evenodd" d="M18.6603 14.9975C19.5112 13.5269 20 11.8209 20 10C20 8.17906 19.5112 6.47312 18.6603 5.0025V5L18.6591 5.00063C16.93 2.01188 13.7009 0 10 0C6.29969 0 3.07125 2.01125 1.34187 4.99875L1.33969 5L1.34063 5.00063C0.489688 6.47156 0 8.17813 0 10C0 11.8219 0.489688 13.5284 1.34094 14.9994L1.34 15L1.34187 15.0013C3.07125 17.9884 6.29969 20 10 20C13.7013 20 16.9303 17.9878 18.6594 14.9991L18.6603 14.9997V14.9975ZM17.3034 5.78312L14.5956 7.34656C13.6762 5.76 11.9622 4.6875 10 4.6875V1.5625C13.1172 1.5625 15.8422 3.26281 17.3034 5.78312ZM6.25 10C6.25 7.93219 7.93219 6.25 10 6.25C12.0678 6.25 13.75 7.93219 13.75 10C13.75 12.0678 12.0678 13.75 10 13.75C7.93219 13.75 6.25 12.0678 6.25 10ZM1.5625 10C1.5625 8.46437 1.97688 7.025 2.69656 5.78344L5.40438 7.34688C4.95125 8.12844 4.6875 9.03312 4.6875 10C4.6875 10.9669 4.95125 11.8713 5.40438 12.6531L2.69625 14.2166C1.97687 12.9753 1.5625 11.5353 1.5625 10ZM10 18.4375V15.3125C11.9622 15.3125 13.6762 14.24 14.5956 12.6531L17.3034 14.2166C15.8422 16.7372 13.1172 18.4375 10 18.4375Z" fill="white" fill-opacity="0.01"/>
<mask id="mask0" mask-type="alpha" maskUnits="userSpaceOnUse" x="0" y="0" width="20" height="20">
<path fill-rule="evenodd" clip-rule="evenodd" d="M18.6603 14.9975C19.5112 13.5269 20 11.8209 20 10C20 8.17906 19.5112 6.47312 18.6603 5.0025V5L18.6591 5.00063C16.93 2.01188 13.7009 0 10 0C6.29969 0 3.07125 2.01125 1.34187 4.99875L1.33969 5L1.34063 5.00063C0.489688 6.47156 0 8.17813 0 10C0 11.8219 0.489688 13.5284 1.34094 14.9994L1.34 15L1.34187 15.0013C3.07125 17.9884 6.29969 20 10 20C13.7013 20 16.9303 17.9878 18.6594 14.9991L18.6603 14.9997V14.9975ZM17.3034 5.78312L14.5956 7.34656C13.6762 5.76 11.9622 4.6875 10 4.6875V1.5625C13.1172 1.5625 15.8422 3.26281 17.3034 5.78312ZM6.25 10C6.25 7.93219 7.93219 6.25 10 6.25C12.0678 6.25 13.75 7.93219 13.75 10C13.75 12.0678 12.0678 13.75 10 13.75C7.93219 13.75 6.25 12.0678 6.25 10ZM1.5625 10C1.5625 8.46437 1.97688 7.025 2.69656 5.78344L5.40438 7.34688C4.95125 8.12844 4.6875 9.03312 4.6875 10C4.6875 10.9669 4.95125 11.8713 5.40438 12.6531L2.69625 14.2166C1.97687 12.9753 1.5625 11.5353 1.5625 10ZM10 18.4375V15.3125C11.9622 15.3125 13.6762 14.24 14.5956 12.6531L17.3034 14.2166C15.8422 16.7372 13.1172 18.4375 10 18.4375Z" fill="white"/>
</mask>
<g mask="url(#mask0)">
<rect opacity="0.5" x="-1" y="-1" width="22" height="22" fill="#9EA0A5"/>
</g>
</svg>
