<svg width="20" height="20" viewBox="0 0 20 20" fill="none" xmlns="http://www.w3.org/2000/svg">
<path fill-rule="evenodd" clip-rule="evenodd" d="M14.673 5.726L14.669 5.729C14.266 6.104 14.244 6.735 14.62 7.137L15.577 8.158C15.876 8.478 15.649 9 15.212 9H9C8.447 9 8 9.448 8 10C8 10.552 8.447 11 9 11H15.197C15.637 11 15.862 11.527 15.558 11.845L14.63 12.819C14.248 13.218 14.266 13.852 14.669 14.229C15.068 14.603 15.695 14.584 16.071 14.186L18.76 11.338C19.49 10.564 19.487 9.354 18.753 8.585L16.067 5.769C15.692 5.376 15.071 5.357 14.673 5.726ZM1.778 0H8.223C9.2 0 10 0.68 10 2.111V3.007C10 3.555 9.556 4 9.007 4H8.994C8.445 4 8 3.555 8 3.007V2.993C8 2.445 7.556 2 7.007 2H2.994C2.445 2 2 2.445 2 2.993V17.007C2 17.555 2.445 18 2.994 18H7.007C7.556 18 8 17.555 8 17.007V16.993C8 16.445 8.445 16 8.994 16H9.007C9.556 16 10 16.445 10 16.993V18.111C10 19.293 9.153 20 8.223 20H1.778C0.796 20 0 19.204 0 18.222V18.111V1.778C0 0.796 0.796 0 1.778 0Z" fill="white" fill-opacity="0.01"/>
<mask id="mask0" mask-type="alpha" maskUnits="userSpaceOnUse" x="0" y="0" width="20" height="20">
<path fill-rule="evenodd" clip-rule="evenodd" d="M14.673 5.726L14.669 5.729C14.266 6.104 14.244 6.735 14.62 7.137L15.577 8.158C15.876 8.478 15.649 9 15.212 9H9C8.447 9 8 9.448 8 10C8 10.552 8.447 11 9 11H15.197C15.637 11 15.862 11.527 15.558 11.845L14.63 12.819C14.248 13.218 14.266 13.852 14.669 14.229C15.068 14.603 15.695 14.584 16.071 14.186L18.76 11.338C19.49 10.564 19.487 9.354 18.753 8.585L16.067 5.769C15.692 5.376 15.071 5.357 14.673 5.726ZM1.778 0H8.223C9.2 0 10 0.68 10 2.111V3.007C10 3.555 9.556 4 9.007 4H8.994C8.445 4 8 3.555 8 3.007V2.993C8 2.445 7.556 2 7.007 2H2.994C2.445 2 2 2.445 2 2.993V17.007C2 17.555 2.445 18 2.994 18H7.007C7.556 18 8 17.555 8 17.007V16.993C8 16.445 8.445 16 8.994 16H9.007C9.556 16 10 16.445 10 16.993V18.111C10 19.293 9.153 20 8.223 20H1.778C0.796 20 0 19.204 0 18.222V18.111V1.778C0 0.796 0.796 0 1.778 0Z" fill="white"/>
</mask>
<g mask="url(#mask0)">
<rect opacity="0.5" x="-1" y="-1" width="22" height="22" fill="#9EA0A5"/>
</g>
</svg>
